<svg width="512" height="512" viewBox="0 0 512 512" fill="none" xmlns="http://www.w3.org/2000/svg">
  <rect width="512" height="512" rx="108" fill="#F8F0E6"/>
  <g stroke="#B73636" stroke-width="10" stroke-linecap="round" stroke-linejoin="round">
    <path d="M158 118H355L414 171V344L353 398H159L98 344V177L158 118Z"/>
    <path d="M158 118L214 168V348L159 398"/>
    <path d="M355 118L298 168V348L353 398"/>
    <path d="M214 168H298"/>
    <path d="M123 189H170"/>
    <path d="M341 189H389"/>
    <path d="M136 211V349"/>
    <path d="M181 133H331"/>
    <path d="M181 153H331"/>
    <path d="M171 221V385"/>
    <path d="M200 206V372"/>
    <path d="M311 206V372"/>
    <path d="M340 221V385"/>
    <path d="M123 320H172"/>
    <path d="M341 320H389"/>
    <path d="M224 120L270 153"/>
    <path d="M245 106H330L366 133V176"/>
    <path d="M146 134L111 164V201"/>
    <path d="M254 179V392"/>
    <path d="M228 392H280"/>
  </g>
</svg>
